# xmcd
#
# Track frame offsets: 
#        150
#        16592
#        32093
#        53187
#        70845
#        96142
#        115415
#        136704
#        150603
#        169252
#
# Disc length: 2523 seconds
#
# Revision: 1
# Processed by: cddbd v1.5.2PL0 Copyright (c) Steve Scherf et al.
# Submitted via: ExactAudioCopy v1.1
#
DISCID=7809d90a
DTITLE=Warhaus - Warhaus
DYEAR=2017
DGENRE=Alternative
TTITLE0=Mad World
TTITLE1=Love's A Stranger
TTITLE2=Well Well
TTITLE3=Control
TTITLE4=Dangerous
TTITLE5=Bang Bang
TTITLE6=Everybody
TTITLE7=No Such High
TTITLE8=Kreusch
TTITLE9=Fall In Love With Me
EXTD=YEAR: 2017
EXTT0=
EXTT1=
EXTT2=
EXTT3=
EXTT4=
EXTT5=
EXTT6=
EXTT7=
EXTT8=
EXTT9=
PLAYORDER=
